<?xml version="1.0" standalone="no"?>
<!DOCTYPE svg PUBLIC "-//W3C//DTD SVG 20010904//EN"
 "http://www.w3.org/TR/2001/REC-SVG-20010904/DTD/svg10.dtd">
<svg version="1.0" xmlns="http://www.w3.org/2000/svg"
 width="198.000000pt" height="182.000000pt" viewBox="0 0 198.000000 182.000000"
 preserveAspectRatio="xMidYMid meet">
<metadata>
Created by potrace 1.10, written by Peter Selinger 2001-2011
</metadata>
<g transform="translate(0.000000,182.000000) scale(0.100000,-0.100000)"
fill="#ff0000" stroke="none">
<path d="M442 1639 c-109 -21 -237 -113 -302 -216 -66 -103 -87 -252 -55 -376
48 -186 242 -430 487 -615 130 -97 369 -262 381 -262 12 0 196 126 347 238
130 96 322 283 393 384 66 94 115 201 135 296 14 69 15 91 4 154 -47 277 -321
462 -585 393 -90 -23 -157 -62 -229 -135 l-67 -67 -68 69 c-121 123 -274 170
-441 137z"/>
</g>
</svg>
