<?xml version="1.0" standalone="no"?>
<!DOCTYPE svg PUBLIC "-//W3C//DTD SVG 20010904//EN"
 "http://www.w3.org/TR/2001/REC-SVG-20010904/DTD/svg10.dtd">
<svg version="1.0" xmlns="http://www.w3.org/2000/svg"
 width="128.000000pt" height="128.000000pt" viewBox="0 0 128.000000 128.000000"
 preserveAspectRatio="xMidYMid meet">
<metadata>
Created by potrace 1.10, written by Peter Selinger 2001-2011
</metadata>
<g transform="translate(0.000000,128.000000) scale(0.050000,-0.050000)"
fill="#000000" stroke="none">
<path d="M50 2240 c-51 -56 -44 -64 443 -487 448 -390 418 -344 437 -663 7
-110 16 -227 20 -260 4 -33 12 -159 19 -280 27 -472 56 -480 343 -95 97 129
320 429 496 665 176 237 408 548 516 692 205 275 228 334 165 418 -49 64
-2381 74 -2439 10z m2140 -125 c2 -3 -268 -139 -600 -303 l-603 -297 -60 57
c-108 104 -350 316 -485 423 -73 58 -134 112 -137 120 -4 13 1876 13 1885 0z
m47 -173 c-15 -21 -212 -284 -438 -585 -226 -301 -468 -626 -539 -722 -70 -96
-129 -172 -131 -170 -2 3 -10 95 -17 205 -7 110 -22 317 -34 460 -14 186 -14
261 2 267 12 4 276 136 586 293 599 304 614 311 571 252z"/>
</g>
</svg>
